<svg width="24" height="22" viewBox="0 0 24 22" fill="none" xmlns="http://www.w3.org/2000/svg">
<path d="M13.73 19.2506C13.5542 19.5285 13.3018 19.7591 12.9982 19.9194C12.6946 20.0797 12.3504 20.1641 12 20.1641C11.6496 20.1641 11.3054 20.0797 11.0018 19.9194C10.6982 19.7591 10.4458 19.5285 10.27 19.2506M18 7.33398C18 5.87529 17.3679 4.47635 16.2426 3.4449C15.1174 2.41345 13.5913 1.83398 12 1.83398C10.4087 1.83398 8.88258 2.41345 7.75736 3.4449C6.63214 4.47635 6 5.87529 6 7.33398C6 13.7506 3 15.584 3 15.584H21C21 15.584 18 13.7506 18 7.33398Z" stroke="#303030" stroke-width="2" stroke-linecap="round" stroke-linejoin="round"/>
</svg>
